<svg width="392" height="49" viewBox="0 0 392 49" fill="none" xmlns="http://www.w3.org/2000/svg">
<path d="M0 8.30529C0 3.98022 3.50617 0.47406 7.83124 0.47406H384.169C388.494 0.47406 392 3.98023 392 8.3053V31.7421C392 41.0094 384.487 48.522 375.22 48.522H16.7799C7.51264 48.522 0 41.0094 0 31.7421V8.30529Z" fill="#8198D1"/>
<path d="M135.134 31.498V18.1004H140.417C141.333 18.1004 142.125 18.2707 142.794 18.6111C143.462 18.9453 143.976 19.4188 144.335 20.0316C144.694 20.6382 144.874 21.3562 144.874 22.1856V22.2042C144.874 23.1079 144.645 23.9033 144.186 24.5903C143.728 25.2712 143.094 25.7509 142.283 26.0294L145.282 31.498H142.877L140.148 26.3451C140.129 26.3451 140.111 26.3451 140.092 26.3451C140.073 26.3451 140.055 26.3451 140.036 26.3451H137.223V31.498H135.134ZM137.223 24.6553H140.213C141.011 24.6553 141.63 24.448 142.07 24.0333C142.509 23.6124 142.729 23.0212 142.729 22.2599V22.2413C142.729 21.4986 142.5 20.9137 142.042 20.4866C141.584 20.0595 140.952 19.8459 140.148 19.8459H137.223V24.6553ZM151.466 31.693C150.488 31.693 149.646 31.4825 148.94 31.0616C148.235 30.6346 147.69 30.0342 147.306 29.2604C146.929 28.4805 146.74 27.5614 146.74 26.5029V26.4937C146.74 25.4414 146.929 24.5253 147.306 23.7454C147.69 22.9593 148.228 22.3466 148.922 21.9071C149.615 21.4676 150.429 21.2479 151.363 21.2479C152.298 21.2479 153.103 21.4583 153.777 21.8792C154.458 22.3001 154.981 22.8913 155.346 23.6526C155.712 24.4077 155.894 25.2867 155.894 26.2894V26.995H147.761V25.5559H154.892L153.917 26.8929V26.0944C153.917 25.3764 153.808 24.7822 153.592 24.3118C153.375 23.8414 153.075 23.4886 152.691 23.2534C152.314 23.0182 151.874 22.9005 151.373 22.9005C150.871 22.9005 150.426 23.0243 150.036 23.2719C149.646 23.5133 149.336 23.8723 149.107 24.3489C148.884 24.8255 148.773 25.4074 148.773 26.0944V26.9022C148.773 27.5583 148.881 28.1215 149.098 28.592C149.321 29.0562 149.637 29.4121 150.045 29.6597C150.46 29.9073 150.949 30.0311 151.512 30.0311C151.939 30.0311 152.307 29.9723 152.617 29.8547C152.933 29.7309 153.189 29.5792 153.387 29.3997C153.592 29.2202 153.731 29.0407 153.805 28.8612L153.842 28.7869H155.783L155.764 28.8705C155.684 29.2047 155.535 29.539 155.319 29.8732C155.102 30.2075 154.814 30.5108 154.455 30.7831C154.102 31.0555 153.675 31.2752 153.174 31.4423C152.679 31.6094 152.109 31.693 151.466 31.693ZM160.732 31.498L157.101 21.4429H159.246L161.753 29.4554H161.892L164.39 21.4429H166.516L162.886 31.498H160.732ZM172.337 31.693C171.353 31.693 170.505 31.4825 169.793 31.0616C169.081 30.6407 168.534 30.0403 168.15 29.2604C167.766 28.4805 167.574 27.5521 167.574 26.4751V26.4565C167.574 25.3795 167.766 24.4511 168.15 23.6712C168.54 22.8913 169.091 22.294 169.802 21.8792C170.514 21.4583 171.359 21.2479 172.337 21.2479C173.315 21.2479 174.157 21.4583 174.863 21.8792C175.574 22.294 176.122 22.8913 176.506 23.6712C176.896 24.4511 177.091 25.3795 177.091 26.4565V26.4751C177.091 27.5521 176.899 28.4805 176.515 29.2604C176.131 30.0403 175.584 30.6407 174.872 31.0616C174.166 31.4825 173.321 31.693 172.337 31.693ZM172.337 30.0032C172.907 30.0032 173.389 29.8639 173.786 29.5854C174.188 29.3069 174.494 28.9045 174.705 28.3784C174.921 27.8523 175.03 27.2179 175.03 26.4751V26.4565C175.03 25.7138 174.921 25.0824 174.705 24.5625C174.494 24.0364 174.188 23.634 173.786 23.3555C173.389 23.077 172.907 22.9377 172.337 22.9377C171.768 22.9377 171.282 23.077 170.879 23.3555C170.477 23.634 170.168 24.0364 169.951 24.5625C169.741 25.0824 169.635 25.7138 169.635 26.4565V26.4751C169.635 27.2179 169.741 27.8523 169.951 28.3784C170.168 28.9045 170.474 29.3069 170.87 29.5854C171.273 29.8639 171.762 30.0032 172.337 30.0032ZM179.514 31.498V17.5248H181.529V31.498H179.514ZM185.846 31.498L182.234 26.7815L183.711 25.5188L188.297 31.498H185.846ZM181.315 28.0627L181.241 25.6859H181.677L185.66 21.4429H188.028L183.469 26.0666L182.736 26.6515L181.315 28.0627ZM193.766 31.693C192.788 31.693 191.946 31.4825 191.24 31.0616C190.535 30.6346 189.99 30.0342 189.606 29.2604C189.229 28.4805 189.04 27.5614 189.04 26.5029V26.4937C189.04 25.4414 189.229 24.5253 189.606 23.7454C189.99 22.9593 190.529 22.3466 191.222 21.9071C191.915 21.4676 192.729 21.2479 193.664 21.2479C194.598 21.2479 195.403 21.4583 196.078 21.8792C196.759 22.3001 197.282 22.8913 197.647 23.6526C198.012 24.4077 198.195 25.2867 198.195 26.2894V26.995H190.061V25.5559H197.192L196.217 26.8929V26.0944C196.217 25.3764 196.109 24.7822 195.892 24.3118C195.675 23.8414 195.375 23.4886 194.991 23.2534C194.614 23.0182 194.174 22.9005 193.673 22.9005C193.172 22.9005 192.726 23.0243 192.336 23.2719C191.946 23.5133 191.637 23.8723 191.408 24.3489C191.185 24.8255 191.073 25.4074 191.073 26.0944V26.9022C191.073 27.5583 191.182 28.1215 191.398 28.592C191.621 29.0562 191.937 29.4121 192.345 29.6597C192.76 29.9073 193.249 30.0311 193.812 30.0311C194.239 30.0311 194.608 29.9723 194.917 29.8547C195.233 29.7309 195.49 29.5792 195.688 29.3997C195.892 29.2202 196.031 29.0407 196.106 28.8612L196.143 28.7869H198.083L198.065 28.8705C197.984 29.2047 197.836 29.539 197.619 29.8732C197.402 30.2075 197.114 30.5108 196.755 30.7831C196.403 31.0555 195.976 31.2752 195.474 31.4423C194.979 31.6094 194.41 31.693 193.766 31.693ZM209.197 31.498V19.9016H205V18.1004H215.482V19.9016H211.286V31.498H209.197ZM220.115 31.693C219.131 31.693 218.283 31.4825 217.571 31.0616C216.86 30.6407 216.312 30.0403 215.928 29.2604C215.544 28.4805 215.352 27.5521 215.352 26.4751V26.4565C215.352 25.3795 215.544 24.4511 215.928 23.6712C216.318 22.8913 216.869 22.294 217.581 21.8792C218.292 21.4583 219.137 21.2479 220.115 21.2479C221.093 21.2479 221.935 21.4583 222.641 21.8792C223.353 22.294 223.9 22.8913 224.284 23.6712C224.674 24.4511 224.869 25.3795 224.869 26.4565V26.4751C224.869 27.5521 224.677 28.4805 224.293 29.2604C223.91 30.0403 223.362 30.6407 222.65 31.0616C221.944 31.4825 221.099 31.693 220.115 31.693ZM220.115 30.0032C220.685 30.0032 221.168 29.8639 221.564 29.5854C221.966 29.3069 222.272 28.9045 222.483 28.3784C222.7 27.8523 222.808 27.2179 222.808 26.4751V26.4565C222.808 25.7138 222.7 25.0824 222.483 24.5625C222.272 24.0364 221.966 23.634 221.564 23.3555C221.168 23.077 220.685 22.9377 220.115 22.9377C219.546 22.9377 219.06 23.077 218.658 23.3555C218.255 23.634 217.946 24.0364 217.729 24.5625C217.519 25.0824 217.414 25.7138 217.414 26.4565V26.4751C217.414 27.2179 217.519 27.8523 217.729 28.3784C217.946 28.9045 218.252 29.3069 218.648 29.5854C219.051 29.8639 219.54 30.0032 220.115 30.0032ZM227.292 31.498V17.5248H229.307V31.498H227.292ZM233.624 31.498L230.013 26.7815L231.489 25.5188L236.075 31.498H233.624ZM229.093 28.0627L229.019 25.6859H229.456L233.439 21.4429H235.806L231.247 26.0666L230.514 26.6515L229.093 28.0627ZM241.544 31.693C240.566 31.693 239.724 31.4825 239.019 31.0616C238.313 30.6346 237.768 30.0342 237.385 29.2604C237.007 28.4805 236.818 27.5614 236.818 26.5029V26.4937C236.818 25.4414 237.007 24.5253 237.385 23.7454C237.768 22.9593 238.307 22.3466 239 21.9071C239.693 21.4676 240.507 21.2479 241.442 21.2479C242.377 21.2479 243.181 21.4583 243.856 21.8792C244.537 22.3001 245.06 22.8913 245.425 23.6526C245.79 24.4077 245.973 25.2867 245.973 26.2894V26.995H237.839V25.5559H244.97L243.995 26.8929V26.0944C243.995 25.3764 243.887 24.7822 243.67 24.3118C243.454 23.8414 243.153 23.4886 242.77 23.2534C242.392 23.0182 241.953 22.9005 241.451 22.9005C240.95 22.9005 240.504 23.0243 240.114 23.2719C239.724 23.5133 239.415 23.8723 239.186 24.3489C238.963 24.8255 238.852 25.4074 238.852 26.0944V26.9022C238.852 27.5583 238.96 28.1215 239.176 28.592C239.399 29.0562 239.715 29.4121 240.123 29.6597C240.538 29.9073 241.027 30.0311 241.59 30.0311C242.018 30.0311 242.386 29.9723 242.695 29.8547C243.011 29.7309 243.268 29.5792 243.466 29.3997C243.67 29.2202 243.809 29.0407 243.884 28.8612L243.921 28.7869H245.861L245.843 28.8705C245.762 29.2047 245.614 29.539 245.397 29.8732C245.18 30.2075 244.893 30.5108 244.534 30.7831C244.181 31.0555 243.754 31.2752 243.252 31.4423C242.757 31.6094 242.188 31.693 241.544 31.693ZM248.294 31.498V21.4429H250.309V22.9655H250.448C250.695 22.4332 251.061 22.0154 251.543 21.7121C252.032 21.4026 252.645 21.2479 253.382 21.2479C254.508 21.2479 255.369 21.5729 255.963 22.2228C256.563 22.8727 256.863 23.795 256.863 24.9896V31.498H254.849V25.4538C254.849 24.6244 254.672 24.0054 254.32 23.5969C253.973 23.1822 253.431 22.9748 252.695 22.9748C252.206 22.9748 251.782 23.0831 251.423 23.2998C251.07 23.5164 250.795 23.8197 250.596 24.2097C250.405 24.5996 250.309 25.0638 250.309 25.6023V31.498H248.294Z" fill="white"/>
</svg>
